<svg id="eb673d0f-9ca1-4916-ae86-9e4d18128ea4" data-name="Layer 1" xmlns="http://www.w3.org/2000/svg" width="865.76" height="682.89" viewBox="0 0 865.76 682.89"><g id="b6494de5-7985-492e-8de0-139502884998" data-name="freesvgillustration--background-complete--inject-16"><rect x="850.9" y="607.52" width="894.53" height="0.45" fill="#ebebeb"/></g><path d="M289.48,682.38S106.81,694.22,114,550.57c0,0,9.33-78.29,79.72-87.63a92,92,0,0,1,36.63,4.31s16.52,5.74,11.5-15.08c0,0-33-112,24.42-127.85,0,0,35.91-15.09,82.6,35.91l34.47-10.06,132.16.72S583,271.16,647.66,298.46c0,0,35.39,14.75,6.21,75.78a129,129,0,0,1-19.82,29.65c-13.48,15.27-36.45,45.32-20.15,56.89,0,0,7.9,9.34,43.82,5,0,0,73.26-2.87,89.78,43.1,0,0,10,24.42-33,55.3l-21.55,19.4L634,656.87s18,12.21-10.77,16.52l-51.83,9Z" fill="#000000"/><path d="M289.48,682.38S106.81,694.22,114,550.57c0,0,9.33-78.29,79.72-87.63a92,92,0,0,1,36.63,4.31s16.52,5.74,11.5-15.08c0,0-33-112,24.42-127.85,0,0,35.91-15.09,82.6,35.91l34.47-10.06,132.16.72S583,271.16,647.66,298.46c0,0,35.39,14.75,6.21,75.78a129,129,0,0,1-19.82,29.65c-13.48,15.27-36.45,45.32-20.15,56.89,0,0,7.9,9.34,43.82,5,0,0,73.26-2.87,89.78,43.1,0,0,10,24.42-33,55.3l-21.55,19.4L634,656.87s18,12.21-10.77,16.52l-51.83,9Z" fill="#fff" opacity="0.68"/><path d="M486.84,514.15A59.44,59.44,0,0,1,460.76,527a60.59,60.59,0,0,1-35.08-3.34c-27.29-10.83-50.56-40-58.45-77.64-11.14-53.21,12.67-103.22,53.18-111.7s82.38,27.77,93.52,81C522.39,455.67,510.7,494.23,486.84,514.15Z" fill="#eb948d"/><path d="M504.44,592.8c-30.58,35.58-76-.67-76-.67l-2.81-17.74c-5.42-34.7-.71-48.89.06-50.77A60.59,60.59,0,0,0,460.76,527a59.44,59.44,0,0,0,26.08-12.81c-16.62,27.25-7.52,37-7.52,37C482,563.71,504.44,592.8,504.44,592.8Z" fill="#ec948d"/><path d="M425.68,523.62s-4.52,13-2.54,24.23c0,0,5.95-7.27,19.83-9.25,0,0,21.81-6,32.39-16.53C475.36,522.07,450,534.42,425.68,523.62Z" fill="#e4837b"/><path d="M336.56,396.49s-6.44,19.53-16.68,32.64c0,0-34,48.75-33.19,72.51,0,0-.41,32.37,11.88,48.34,0,0-9-45.06,18.44-76.61,0,0,14.75-17.61,18-26.63,0,0,1.23,10.65-15.57,33.6,0,0-20.9,26.22-18.44,97.09,0,0,2.46,26.63,3.69,31.55l15.57-45.07s10.65-43.83,52.44-38.92c0,0,27,4.51,50.39,12.29a53.7,53.7,0,0,1,2.73-13.77s-23-7.39-40.83-34.57c0,0-15.16-18.44-20.08-56.13,0,0,29.5-25.4,14.34-66A65.16,65.16,0,0,1,408,392.25S419,420.11,485.8,400c0,0-17.2-1.64-27-15.57,0,0,28.68,19.66,52,10.24,0,0-8.19-40.15-33.59-61.45,0,0-32.78-30.73-85.63-7,0,0-39.58,15.79-47,62.49l-1.79,19.86S343.81,403.19,336.56,396.49Z" fill="#af2e25"/><path d="M454.27,312s50.14,4.44,70.64,56.69c0,0,17,35.32,31.83,58,0,0,34.45,46.66,12.21,110.32,0,0-29.65-11.34-34-43.61,0,0-5.23,16.57,14.39,35.76,0,0,38.37,28.78,42.73,57.13,0,0,4.37,27.9-4.79,55.81,0,0-13-16-18.68-32.11,0,0-1.48-22.75-27.36-37.31A43.48,43.48,0,0,0,527.14,568c-11.53-2-37.62-7.3-47.82-16.82,0,0-9.62-10.17,7.52-37,0,0,19.52-15.06,26.73-46.9l21.81-20.93-24-59.74S498.75,334.69,454.27,312Z" fill="#af2e25"/><path d="M289.48,682.38s7.39-54.94,15.24-73.4l18.63-54.39s14.53-36.15,49.38-29.6c0,0,34.69,5.76,50.39,12.29,0,0-2,12.32,5.31,54.85,0,0,8.85,67.16,17.06,90.25Z" fill="#003EA8"/><path d="M364.41,603.86s-5.11,39.25-22,78.76l33.33.27S364.41,654.15,364.41,603.86Z" opacity="0.2"/><path d="M428.43,592.13s45.23,36,76,.67c0,0,11.65,13,11.74,50.37l3.42,39.24-74.11,0S438.58,666.41,428.43,592.13Z" fill="#000000"/><path d="M479.32,551.16s9.71,9.89,48.09,16.78a47.28,47.28,0,0,1,16.23,6.12c9.49,5.76,22.2,16.91,25.31,36.22,0,0,12.74,42.8,2.46,72.13H519.6l-4.19-49.52s-1-26.47-11-40.09C504.44,592.8,482.39,564.87,479.32,551.16Z" fill="#003EA8"/><path d="M365.22,437.76s-22.94,12.63-16,39A38.25,38.25,0,0,0,362,497c6.83,5.51,17.47,9.93,30.74,1.94C392.7,498.92,374.71,484.2,365.22,437.76Z" fill="#000000"/><path d="M355.07,446.77s3.28,26,20.95,56.07c0,0-17,1-26.5-24.85C349.52,478,343.67,460.65,355.07,446.77Z" fill="#fff" opacity="0.2"/><path d="M364.94,432.81a32.13,32.13,0,0,0,5.07-5.4s21,74.78,43.71,90.21C413.72,517.62,373.17,495.43,364.94,432.81Z" fill="#e4837b"/><path d="M689.66,662.59c40.08-10.5,59.12-39.41,61.85-52.93a24.33,24.33,0,0,0-6.78-21.95c-12.08-12-30.05-13.09-45.49-10.93-19.38,2.71-37.51,11-52.91,23-38.71,30.35-74.92,82.59-74.92,82.59s39.51-12.67,70.53-13.62C641.94,668.79,681.59,664.7,689.66,662.59Z" fill="#003EA8"/><path d="M689.66,662.59c40.08-10.5,59.12-39.41,61.85-52.93a24.33,24.33,0,0,0-6.78-21.95c-12.08-12-30.05-13.09-45.49-10.93-19.38,2.71-37.51,11-52.91,23-38.71,30.35-74.92,82.59-74.92,82.59s39.51-12.67,70.53-13.62C641.94,668.79,681.59,664.7,689.66,662.59Z" fill="#fff" opacity="0.68"/><g opacity="0.49"><path d="M722.58,587.19c-3.22,1.87-6.47,3.69-9.67,5.6s-6.39,3.81-9.56,5.76l-9.52,5.83-9.48,5.91q-18.92,11.87-37.74,23.89l-75.2,48.23,18.53-12.47,18.64-12.31c12.45-8.18,25-16.24,37.5-24.29s25.17-15.93,37.87-23.7S709.45,594.22,722.58,587.19Z" fill="#fff" opacity="0.2"/><path d="M626.19,625.37q-4.79,8.6-9.72,17.11c-3.25,5.7-6.6,11.34-9.91,17l-.39-.72c8.44.34,16.86.84,25.29,1.25s16.85,1,25.27,1.61c-8.44-.16-16.87-.47-25.31-.77s-16.86-.68-25.29-1.14l-.79,0,.4-.68c3.37-5.62,6.7-11.28,10.13-16.87S622.7,630.92,626.19,625.37Z" fill="#fff" opacity="0.2"/><path d="M651,630.62c5-.25,9.93-.39,14.9-.51s9.94-.15,14.91-.23,9.95,0,14.92,0l7.45.08c2.49.07,5,.1,7.46.19-2.48.13-5,.2-7.45.3l-7.46.2c-5,.12-9.94.16-14.91.24s-9.94,0-14.91,0S656,630.78,651,630.62Z" fill="#fff" opacity="0.2"/><path d="M709.22,647.32c-5.18-.82-10.33-1.8-15.47-2.82s-10.26-2.18-15.37-3.34-10.19-2.47-15.24-3.9-10.07-2.93-15-4.73l3.79,1c1.26.35,2.53.67,3.8,1,2.53.68,5.07,1.32,7.61,1.95q7.62,1.9,15.27,3.67c5.09,1.24,10.2,2.37,15.3,3.56Z" fill="#fff" opacity="0.2"/></g><path d="M539.68,639.85c-1.1,6.07-1.27,17.69,10.89,24.73,0,0,14.78,11,20.84,17.83,0,0-.22-28.14-15.46-43.84,0,0-3.84-3.83-11-3.41A5.73,5.73,0,0,0,539.68,639.85Z" fill="#003EA8"/><path d="M539.68,639.85c-1.1,6.07-1.27,17.69,10.89,24.73,0,0,14.78,11,20.84,17.83,0,0-.22-28.14-15.46-43.84,0,0-3.84-3.83-11-3.41A5.73,5.73,0,0,0,539.68,639.85Z" fill="#fff" opacity="0.68"/><path d="M581.51,648.89a107.33,107.33,0,0,0,4.74-24.15,67.56,67.56,0,0,1,2-12.4c2.33-8.78,7.3-21.14,17-22a9.63,9.63,0,0,1,9,4.55c3.32,5.25,5.91,16-8.43,33.34C605.72,628.26,595,642.16,581.51,648.89Z" fill="#003EA8"/><path d="M581.51,648.89a107.33,107.33,0,0,0,4.74-24.15,67.56,67.56,0,0,1,2-12.4c2.33-8.78,7.3-21.14,17-22a9.63,9.63,0,0,1,9,4.55c3.32,5.25,5.91,16-8.43,33.34C605.72,628.26,595,642.16,581.51,648.89Z" fill="#fff" opacity="0.68"/><g opacity="0.2"><path d="M581.51,648.89c1.26-1.91,2.55-3.79,3.79-5.71s2.51-3.81,3.74-5.73c2.46-3.84,4.92-7.68,7.25-11.6s4.63-7.85,6.84-11.83c1.06-2,2.17-4,3.16-6.06s2-4.1,3-6.15a120.72,120.72,0,0,1-5.49,12.57c-2.08,4.07-4.34,8-6.67,12s-4.86,7.75-7.46,11.51S584.38,645.34,581.51,648.89Z" fill="#fff"/><path d="M598.09,605c.12,3.22.15,6.43.15,9.65s0,6.43-.1,9.64l-.83-.37q3.8-3.6,7.69-7.1l3.9-3.49c1.33-1.13,2.64-2.29,4-3.4-1.19,1.28-2.43,2.52-3.64,3.77l-3.71,3.69Q601.8,621,598,624.59l-.87.81,0-1.18c.09-3.22.18-6.43.35-9.64S597.82,608.16,598.09,605Z" fill="#fff"/><path d="M593.61,618.4c-.22,2.8-.58,5.58-.94,8.36s-.8,5.55-1.27,8.31l-.72-.51c1.94-1.11,3.9-2.2,5.89-3.24s4-2.09,6-3.06c-1.86,1.28-3.75,2.49-5.65,3.67s-3.83,2.35-5.77,3.48l-.88.52.16-1c.42-2.77.9-5.53,1.42-8.28S592.94,621.13,593.61,618.4Z" fill="#fff"/></g><g opacity="0.2"><path d="M546.54,642.61a95.44,95.44,0,0,1,7.89,8.8c2.47,3.09,4.74,6.33,6.9,9.63a100.71,100.71,0,0,1,5.79,10.34,74.27,74.27,0,0,1,4.29,11c-.82-1.8-1.47-3.66-2.37-5.41-.42-.88-.81-1.78-1.25-2.66l-1.36-2.61c-1.85-3.46-3.76-6.88-5.94-10.15s-4.34-6.54-6.66-9.7c-1.17-1.58-2.36-3.15-3.58-4.68S547.8,644.12,546.54,642.61Z" fill="#fff"/><path d="M546.09,655.61c1.14.21,2.27.46,3.41.7s2.27.51,3.4.77c2.26.51,4.52,1.07,6.76,1.65l-.58.63c-1.08-3-2.09-6-3.08-9s-1.92-6-2.74-9.11c1.27,2.92,2.4,5.87,3.54,8.83S559,656,560,659l.3.87-.88-.24c-2.24-.62-4.47-1.25-6.69-1.94-1.11-.34-2.22-.65-3.32-1S547.18,656,546.09,655.61Z" fill="#fff"/><path d="M556.85,665.92C560,667.11,563,668.51,566,670l-.7.47c-.18-2.17-.29-4.33-.38-6.51,0-1.08-.07-2.17-.08-3.26s0-2.17,0-3.27c.19,1.08.33,2.16.49,3.24s.26,2.16.37,3.24c.21,2.16.4,4.32.52,6.49l.05.86-.75-.39C562.62,669.32,559.68,667.72,556.85,665.92Z" fill="#fff"/></g><path d="M289.22,679.11s-15.12-23.64-28.86-42.23a121.85,121.85,0,0,0-11.76-13.71c-15.88-15.91-64.49-70.33-39.22-117.67a24.6,24.6,0,0,1,25.39-12.68c19,2.91,48.67,17.5,59.26,78.22C294,571,302.06,595.65,289.22,679.11Z" fill="#003EA8"/><path d="M289.22,679.11s-15.12-23.64-28.86-42.23a121.85,121.85,0,0,0-11.76-13.71c-15.88-15.91-64.49-70.33-39.22-117.67a24.6,24.6,0,0,1,25.39-12.68c19,2.91,48.67,17.5,59.26,78.22C294,571,302.06,595.65,289.22,679.11Z" fill="#fff" opacity="0.68"/><polygon points="249.63 515.4 254.81 535.81 259.9 556.24 269.91 597.14 279.69 638.1 284.51 658.59 289.22 679.11 284.03 658.71 278.95 638.28 268.94 597.38 259.15 556.42 254.34 535.92 249.63 515.4" fill="#fff" opacity="0.2"/><path d="M217,562.48q6,4.08,12.19,7.95T241.62,578c4.18,2.45,8.44,4.75,12.8,6.85a62.73,62.73,0,0,0,13.49,5l-.56.39c1.19-7.31,2.34-14.62,3.6-21.92s2.49-14.59,3.82-21.88c-1,7.34-2,14.67-3.13,22s-2.23,14.64-3.35,22l-.08.49-.48-.1A57.88,57.88,0,0,1,254,585.66q-6.56-3.23-12.82-7t-12.3-7.81C224.87,568.16,220.88,565.39,217,562.48Z" fill="#fff" opacity="0.2"/><path d="M226.62,549.64c3.58,3.25,7.08,6.56,10.57,9.9s6.92,6.72,10.38,10.08,6.84,6.8,10.22,10.25l5,5.18c1.66,1.75,3.34,3.48,5,5.25-1.8-1.61-3.55-3.27-5.32-4.9l-5.25-5c-3.49-3.33-6.92-6.72-10.38-10.08s-6.84-6.8-10.22-10.25S229.91,553.18,226.62,549.64Z" fill="#fff" opacity="0.2"/><path d="M245.88,608.49c2.85,2.59,5.65,5.23,8.47,7.84l8.4,7.92,8.33,8c2.77,2.67,5.57,5.32,8.31,8l-.79.18c2.45-6.14,4.83-12.3,7.34-18.42s5-12.24,7.56-18.32c-2.23,6.22-4.55,12.41-6.89,18.59s-4.74,12.33-7.1,18.5l-.26.68-.54-.51c-2.78-2.65-5.51-5.36-8.27-8l-8.25-8.07L254,616.7C251.29,614,248.56,611.25,245.88,608.49Z" fill="#fff" opacity="0.2"/><path d="M289.48,682.38s-28.62-8.62-47.34-8.62c0,0-65.6-3-62.69-41a13.08,13.08,0,0,1,4-8.51c5.3-5,17.2-11.94,38.6-4.44a74,74,0,0,1,24.76,14.84C258.27,644.83,279.11,664.71,289.48,682.38Z" fill="#003EA8"/><path d="M289.48,682.38s-28.62-8.62-47.34-8.62c0,0-65.6-3-62.69-41a13.08,13.08,0,0,1,4-8.51c5.3-5,17.2-11.94,38.6-4.44a74,74,0,0,1,24.76,14.84C258.27,644.83,279.11,664.71,289.48,682.38Z" fill="#fff" opacity="0.68"/><path d="M204.15,628.82c7.22,4.29,14.38,8.67,21.54,13.07l21.39,13.29,21.27,13.48,10.59,6.82,10.54,6.9-10.8-6.49-10.74-6.57L246.55,656l-21.27-13.48C218.21,638,211.15,633.46,204.15,628.82Z" fill="#fff" opacity="0.2"/><path d="M227.16,634.17q3.78,4.27,7.47,8.63l3.69,4.35,3.64,4.39.42.5-.62.22c-2.89,1-5.79,1.9-8.73,2.68s-5.88,1.5-8.84,2.18-5.94,1.24-8.92,1.81-6,1-9,1.46l8.87-2c3-.66,5.9-1.38,8.83-2.1s5.88-1.47,8.79-2.28,5.83-1.62,8.67-2.6l-.2.72-3.59-4.44-3.53-4.48Q230.59,638.73,227.16,634.17Z" fill="#fff" opacity="0.2"/><path d="M206.83,650.22c2.72-.11,5.45-.12,8.17-.11s5.44.07,8.16.15,5.44.2,8.16.38l4.07.27c1.36.13,2.72.23,4.07.38-1.36.07-2.72.08-4.09.11h-4.08c-2.72,0-5.44-.07-8.16-.15s-5.44-.21-8.16-.39S209.54,650.52,206.83,650.22Z" fill="#fff" opacity="0.2"/><path d="M241.6,670.55c4.26-.59,8.53-1,12.81-1.49s8.55-.8,12.83-1.13l-.41.65c-1.06-2.86-2.09-5.72-3.07-8.61-.5-1.44-1-2.87-1.49-4.32s-1-2.9-1.41-4.36c.62,1.4,1.2,2.81,1.8,4.21s1.15,2.82,1.73,4.23c1.15,2.83,2.26,5.67,3.35,8.51l.22.6-.64.06q-6.42.57-12.84,1C250.19,670.17,245.9,670.43,241.6,670.55Z" fill="#fff" opacity="0.2"/><circle cx="653.26" cy="517.13" r="19.23" fill="#fff"/><circle cx="276.31" cy="416.2" r="19.23" fill="#fff"/><circle cx="202.84" cy="429.93" r="10.3" fill="#000000"/><circle cx="173.32" cy="410.71" r="6.18" fill="#000000"/><g opacity="0.68"><circle cx="202.84" cy="429.93" r="10.3" fill="#fff"/><circle cx="173.32" cy="410.71" r="6.18" fill="#fff"/></g><path d="M165.36,267.87l-.78,22.9s-1,15.37-18.24,17.79c0,0-17.13,1.06-12-17.77,0,0,4.48-11.21,23.22-7l2.61-38S158.37,233,170.78,231l32-8.12s14.28-6.14,12.45,7c-.6,4.3-.86,8.64-1.06,13l-1.65,35.93s-1.19,20.42-16.8,21.16c0,0-21.86-2.22-12.83-19.05,0,0,7.6-10.9,22.74-3.46l1.84-29.7a3.41,3.41,0,0,0-4.29-3.5l-34.68,9.37A3.4,3.4,0,0,0,166,256.7Z" fill="#003EA8"/><path d="M604.94,344.28l3,8.22a7.67,7.67,0,0,1-3.95,8.89s-5.92,2.8-6.74-4.61c0,0,0-4.61,7.24-5.76L600,337.2s-2.46-4.28,1.65-6.74l10.2-7.41s4.19-4.19,5.4.71c.39,1.61.92,3.18,1.46,4.75l4.49,13s2.47,7.4-3,9.87c0,0-8.06,2.31-7.24-4.93,0,0,1.15-4.94,7.57-4.45L617,331.19a1.29,1.29,0,0,0-2-.63l-11,8.22a1.3,1.3,0,0,0-.45,1.45Z" fill="#fff"/><path d="M699.57,267.91l7,19.58s4.31,13.32-9.4,21.15c0,0-14.1,6.66-16.05-11,0,0,0-11,17.23-13.71l-10.58-32.9S682,240.89,691.74,235L716,217.39s10-10,12.84,1.68c.94,3.83,2.19,7.58,3.49,11.31L743,261.25s5.88,17.63-7,23.5c0,0-19.19,5.48-17.23-11.75,0,0,2.74-11.75,18-10.57l-8.45-25.67a3.09,3.09,0,0,0-4.79-1.51l-26.1,19.57a3.1,3.1,0,0,0-1.08,3.46Z" fill="#003EA8"/><path d="M642.5,181.81l-4,12s-3,8-12.43,6.54c0,0-9.23-2.14-3.53-11.27,0,0,4.13-5.22,13.37-.05l7.34-19.65s1-7.06,7.91-6.18l18.2.74s8.51-1,5.49,5.64c-1,2.18-1.81,4.43-2.6,6.7L665.72,195s-3.83,10.61-12.2,8.54c0,0-11.21-4.6-3.79-12.08,0,0,5.73-4.56,12.56,1.74l5.64-15.4a1.89,1.89,0,0,0-1.72-2.53l-19.8-.49A1.87,1.87,0,0,0,644.6,176Z" fill="#003EA8"/><path d="M241.93,163.42l-.71,8.76a7.7,7.7,0,0,1-7.3,6.5s-6.59.1-4.26-7c0,0,1.91-4.22,9-2.27l1.67-14.5s-.48-4.94,4.31-5.49l12.41-2.54s5.59-2.1,4.65,2.88c-.31,1.64-.48,3.3-.63,5l-1.28,13.75s-.81,7.8-6.81,7.8c0,0-8.34-1.24-4.58-7.52,0,0,3.11-4,8.78-.93l1.23-11.34a1.31,1.31,0,0,0-1.58-1.42l-13.46,3a1.3,1.3,0,0,0-1,1.14Z" fill="#003EA8"/><path d="M570.39,369.7l.14,8.74a7.65,7.65,0,0,1-6.61,7.13s-6.51.73-4.89-6.54c0,0,1.49-4.36,8.71-3.11l.26-14.51s-1-4.85,3.74-5.86l12-3.71s5.33-2.61,4.88,2.41c-.14,1.65-.16,3.31-.15,5l.06,13.73s-.05,7.8-6,8.39c0,0-8.37-.43-5.25-7,0,0,2.68-4.3,8.59-1.76l.13-11.36a1.3,1.3,0,0,0-1.7-1.25l-13,4.24a1.3,1.3,0,0,0-.9,1.23Z" fill="#fff"/><rect x="310.35" y="95.54" width="277.37" height="182.53" rx="22.09" fill="#000000"/><rect x="330.84" y="113.54" width="50.23" height="49.24" rx="3.8" fill="#fff" opacity="0.2"/><rect x="393.96" y="116.85" width="81.29" height="8.26" rx="4.13" fill="#fff" opacity="0.2"/><rect x="393.96" y="132.28" width="160.77" height="8.26" rx="4.13" fill="#fff" opacity="0.2"/><g opacity="0.2"><path d="M569.07,178.37H331.45a1,1,0,0,1,0-2H569.07a1,1,0,0,1,0,2Z" fill="#fff"/></g><circle cx="436.74" cy="177.37" r="3.69" fill="#000000"/><circle cx="436.74" cy="177.37" r="3.69" opacity="0.2"/><rect x="431.82" y="193.35" width="14.34" height="34.82" fill="#000000"/><rect x="453.12" y="193.35" width="14.34" height="34.82" fill="#000000"/><g opacity="0.2"><rect x="431.82" y="193.35" width="14.34" height="34.82"/><rect x="453.12" y="193.35" width="14.34" height="34.82"/></g><path d="M551.74,211.26,534.35,221.5a.56.56,0,0,1-.84-.49v-8.66l-18.46,9.87a.56.56,0,0,1-.82-.49V200.27a.56.56,0,0,1,.82-.5l18.53,9.57V200.6a.56.56,0,0,1,.84-.48l17.32,10.18A.55.55,0,0,1,551.74,211.26Z" fill="#fff" opacity="0.2"/><path d="M347.92,211.39l17.39,10.23a.56.56,0,0,0,.84-.48v-8.66l18.46,9.87a.56.56,0,0,0,.82-.49V200.39a.56.56,0,0,0-.81-.49l-18.54,9.56v-8.74a.56.56,0,0,0-.84-.48l-17.32,10.19A.55.55,0,0,0,347.92,211.39Z" fill="#fff" opacity="0.2"/><g opacity="0.2"><path d="M544.46,245H355.38a1,1,0,0,1,0-2H544.46a1,1,0,0,1,0,2Z" fill="#fff"/></g><path d="M564.56,238.21l-3.77,3.08h-6.31a.9.9,0,0,0-.9.9v3.91a.91.91,0,0,0,.9.9H560l4.53,3.07Z" fill="#fff" opacity="0.2"/><path d="M341.33,238.25l-3.77,3.07h-6.3a.9.9,0,0,0-.9.9v3.91a.9.9,0,0,0,.9.9h5.54l4.53,3.07Z" fill="#fff" opacity="0.2"/><g opacity="0.2"><path d="M566.72,248a.48.48,0,0,1-.33-.13.49.49,0,0,1,0-.7,4.27,4.27,0,0,0,1.36-3.36,3.63,3.63,0,0,0-1.54-2.32.5.5,0,0,1-.15-.69.49.49,0,0,1,.68-.15,4.65,4.65,0,0,1,2,3,5.2,5.2,0,0,1-1.6,4.16A.52.52,0,0,1,566.72,248Z" fill="#fff"/></g><g opacity="0.2"><path d="M568.29,250.84a.51.51,0,0,1-.37-.17.51.51,0,0,1,0-.71c2.06-1.85,3.06-3.8,3-5.79-.16-3.32-3.32-5.69-3.35-5.72a.5.5,0,0,1-.1-.7.48.48,0,0,1,.69-.1c.15.11,3.57,2.69,3.76,6.48.11,2.29-1,4.51-3.29,6.58A.55.55,0,0,1,568.29,250.84Z" fill="#fff"/></g><g opacity="0.2"><path d="M569.72,253.84a.5.5,0,0,1-.34-.87c3.42-3.16,5-6.33,4.76-9.45-.39-4.7-4.93-7.74-5-7.77a.5.5,0,0,1,.55-.83c.21.13,5,3.32,5.43,8.51.28,3.44-1.42,6.9-5.08,10.27A.49.49,0,0,1,569.72,253.84Z" fill="#fff"/></g><path d="M502.45,396.49s14.75,33.68,10.79,71.35c0,0,42.75-1.95,32.18-46.89,0,0-3.31-17.85-25.78-25.12,0,0-24.46-95.17-92.53-85.92,0,0-72.05-4-90.55,86.58a20.76,20.76,0,0,1,6.26,13.38s-.82-79.07,73.75-91.36c0,0,52.85-13.52,81.11,41.38,0,0,9.84,20.07,13.11,34.82C510.79,394.71,508,396.23,502.45,396.49Z" fill="#000000"/><path d="M523.49,397.37s6.64,33.82,7,65.66c0,0,20.23-8,16.25-35.82C546.71,427.21,546,406.65,523.49,397.37Z" fill="#fff" opacity="0.2"/><path d="M349,138.58l-.71,8.76a7.71,7.71,0,0,1-7.31,6.5s-6.58.1-4.26-7c0,0,1.91-4.22,9-2.27l1.68-14.5s-.49-4.94,4.3-5.49L364.12,122s5.58-2.1,4.65,2.88c-.31,1.64-.48,3.3-.64,5l-1.27,13.75s-.82,7.8-6.81,7.8c0,0-8.34-1.24-4.58-7.52,0,0,3.1-4,8.77-.93l1.24-11.34a1.32,1.32,0,0,0-1.59-1.42l-13.45,3a1.31,1.31,0,0,0-1,1.14Z" fill="#003EA8"/><circle cx="417.56" cy="244.54" r="7.64" fill="#000000"/><circle cx="417.56" cy="244.54" r="7.64" opacity="0.2"/></svg>